<svg width="42" height="42" viewBox="0 0 42 42" fill="none" xmlns="http://www.w3.org/2000/svg">
<path d="M21 41.5C32.3218 41.5 41.5 32.3218 41.5 21C41.5 9.67816 32.3218 0.5 21 0.5C9.67816 0.5 0.5 9.67816 0.5 21C0.5 32.3218 9.67816 41.5 21 41.5ZM35.5 21C35.5 29.0081 29.0081 35.5 21 35.5C17.9713 35.5 15.1606 34.5719 12.8353 32.9845L32.9845 12.8353C34.5719 15.1606 35.5 17.9713 35.5 21ZM21 6.5C23.8099 6.5 26.4319 7.29878 28.6529 8.68163L8.68163 28.6529C7.29878 26.4319 6.5 23.8099 6.5 21C6.5 12.9919 12.9919 6.5 21 6.5Z" fill="#FCFCFC" stroke="#222222"/>
</svg>
