<svg width="33" height="60" fill="none" xmlns="http://www.w3.org/2000/svg"><path d="M16.577 43.348c-1.012-.013-1.908-.2-2.69-.56 0-.6-.034-1.273-.101-2.02a14.636 14.636 0 0 0-.304-2.14l.162-.08c.742.147 1.436.22 2.083.22.526 0 .944-.046 1.254-.14.31-.106.465-.26.465-.46s-.182-.346-.546-.44c-.35-.093-.816-.14-1.395-.14-.337 0-.83.027-1.477.08l-.445-2.44c.31-.293.614-.486.91-.58.31-.106.64-.16.992-.16.822 0 1.523.187 2.103.56.593.374 1.038.86 1.335 1.46.297.6.445 1.227.445 1.88 0 1.014-.236 1.814-.708 2.4-.459.574-1.126.92-2.003 1.04l.02 1.42-.1.1zm-1.234 4.14c-.472 0-.85-.14-1.133-.42-.283-.293-.425-.686-.425-1.18 0-.426.142-.786.425-1.08.297-.293.66-.44 1.092-.44.445 0 .816.147 1.113.44.31.294.465.654.465 1.08 0 .494-.148.887-.445 1.18-.283.28-.647.42-1.092.42z" fill="#222"/><path d="M23.443.501h.004c.725-.005 1.335.011 1.788.326.41.284.822.922.822 2.527 0 1.572-.476 2.217-.932 2.514-.505.327-1.134.338-1.682.338a6282.178 6282.178 0 0 0-12.55.015l-1.058.002H9.55l-.074.001H9.45c-.544 0-1.166-.016-1.663-.345-.453-.3-.924-.951-.924-2.525 0-1.572.476-2.218.933-2.514C8.302.512 8.931.5 9.478.5h7.511l6.454.001zM7.932 10.989c.878-1.097 1.597-2.306 1.93-3.765l6.586-.009 6.586-.008c.334 1.456 1.057 2.631 1.94 3.687.66.79 1.435 1.538 2.209 2.285.337.326.674.652 1.001.98 2.173 2.182 4.157 4.716 4.157 9.31 0 4.922.051 9.167.096 12.83.064 5.3.114 9.383-.03 12.535-.12 2.66-.376 4.602-.857 6.021-.473 1.4-1.155 2.268-2.128 2.825-1.009.578-2.871 1.041-5.234 1.355-2.34.31-5.103.466-7.86.465-2.758 0-5.498-.158-7.793-.47-2.322-.314-4.108-.776-5.02-1.341-.394-.244-.77-.701-1.113-1.41-.34-.705-.627-1.618-.866-2.717-.478-2.198-.746-5.066-.89-8.332C.448 40.668.495 35.388.54 30.157c.02-2.259.04-4.509.04-6.687 0-4.277 1.972-6.807 4.15-9.074.299-.31.604-.62.91-.929.802-.81 1.607-1.622 2.292-2.478z" fill="#FCFCFC" stroke="#222"/><path d="M27.827 30.83V34h-2.059v-3.136l-2.196-6.794h2.093l.87 3.223c.09.325.175.668.251 1.028h.023c.084-.395.168-.75.252-1.063l.857-3.188H30l-2.173 6.76zM24.276 34h-2.162l-.389-2.509a63.31 63.31 0 0 0-.08-.47c-.03-.232-.068-.4-.114-.505-.046-.116-.11-.192-.194-.227-.214.012-.526.018-.938.018V34H18.34v-9.843A23.052 23.052 0 0 1 20.925 24c.724 0 1.311.093 1.761.279.45.174.786.482 1.007.923.229.43.343 1.022.343 1.777 0 .709-.107 1.266-.32 1.673-.214.395-.557.633-1.03.714v.104a.966.966 0 0 1 .664.401c.183.22.305.505.366.854l.56 3.275zM20.4 28.338c.068.012.202.017.4.017.587 0 .93-.075 1.03-.226.091-.14.137-.465.137-.976 0-.476-.084-.801-.252-.975-.16-.175-.427-.262-.8-.262-.084 0-.256.012-.515.035v2.387zM15.695 24.07h2.06V34h-2.06v-9.93zM13.228 31.822h-1.899L10.986 34H8.882l2.104-9.93h2.688L15.687 34h-2.116l-.343-2.178zm-.96-5.61-.676 3.677h1.361l-.64-3.677h-.046zM5.287 24.07c.893 0 1.62.127 2.185.383.572.256 1.014.738 1.327 1.446.32.708.48 1.725.48 3.049 0 1.417-.168 2.497-.503 3.24-.336.732-.785 1.22-1.35 1.464-.564.232-1.277.348-2.139.348H3v-9.93h2.287zm1.533 7.56c.092-.139.156-.499.195-1.08.038-.58.057-1.114.057-1.602 0-.616-.03-1.104-.092-1.464-.053-.371-.152-.668-.297-.888-.229-.384-.622-.575-1.178-.575-.1 0-.248.011-.446.035v5.784c.13.023.331.035.606.035.282 0 .53-.018.743-.053.221-.046.359-.11.412-.191z" fill="#222"/></svg>