<svg width="40" height="60" fill="none" xmlns="http://www.w3.org/2000/svg"><path d="m31.342 57.992-.003.03V58.058l-.002.045a2.175 2.175 0 0 1-.173.718 1.176 1.176 0 0 1-.361.473c-.154.114-.375.206-.713.206H9.975c-.338 0-.56-.092-.713-.206a1.176 1.176 0 0 1-.362-.473 2.098 2.098 0 0 1-.174-.763V58.021l-.004-.03L3.564 15.5h32.873l-5.095 42.492zM38.147 8.501h.004c.666-.006.834.03.97.223.092.128.193.37.267.83.072.456.112 1.083.112 1.947 0 .856-.057 1.475-.149 1.922-.092.448-.214.693-.322.829-.18.225-.39.248-.883.248H1.855c-.492 0-.704-.023-.883-.248-.108-.136-.23-.38-.322-.83C.557 12.977.5 12.358.5 11.502c0-.857.057-1.476.149-1.923.092-.449.214-.693.322-.829.18-.225.39-.248.883-.248H38.147z" fill="#FCFCFC" stroke="#222"/><path d="M34.347 8.5H5.661a149.689 149.689 0 0 1 .84-2.83c.283-.917.593-1.882.888-2.717.278-.786.533-1.429.732-1.81a14.29 14.29 0 0 1 1.828-.3c1.195-.114 2.755-.19 4.31-.241A200.815 200.815 0 0 1 20.281.5h.136V0v.5h.127a133.354 133.354 0 0 1 1.65.013c1.07.013 2.5.038 3.946.089 1.448.051 2.901.127 4.02.24.56.057 1.023.122 1.353.195a2.321 2.321 0 0 1 .371.107c.214.373.48 1.015.766 1.811.298.833.605 1.796.882 2.712a113.002 113.002 0 0 1 .815 2.833zm-2.425-7.337-.005-.003a.023.023 0 0 1 .005.003z" fill="#FCFCFC" stroke="#222"/><path d="M24.375 36.026h5.46v1.748h-3.092v1.515h2.605v1.573h-2.605v1.69h3.079v1.777h-5.447v-8.303zM24.103 42.741v1.588h-6.079v-1.66l3.566-5.04h-3.46v-1.603h5.867v1.675l-3.512 5.04h3.618zM15.284 36.026h2.369v8.303h-2.368v-8.303zM11.316 38.27c0 .203.092.363.276.48.193.117.491.243.895.379.482.175.877.344 1.184.51.316.165.588.422.816.771.236.35.355.807.355 1.37 0 1.806-1.062 2.709-3.184 2.709a10 10 0 0 1-1.29-.102c-.5-.068-.956-.155-1.368-.262.018-.204.053-.5.105-.889.062-.398.119-.694.171-.888.307.048.768.107 1.382.175.623.067 1.092.101 1.408.101.184 0 .293-.014.329-.043a.353.353 0 0 0 .118-.19.755.755 0 0 0 .053-.247.474.474 0 0 0-.25-.437c-.167-.107-.452-.233-.856-.379a7.557 7.557 0 0 1-1.197-.51c-.316-.174-.592-.446-.829-.815-.237-.37-.355-.855-.355-1.457 0-.427.088-.845.263-1.253.176-.417.355-.699.54-.844.14-.107.43-.21.868-.306.438-.097.85-.146 1.237-.146.982 0 1.785.102 2.407.306-.008.194-.039.461-.092.801-.043.34-.092.65-.144.932l-.303-.014c-1.14-.088-1.868-.131-2.184-.131a.843.843 0 0 0-.224.014c-.035.02-.066.063-.092.131a.642.642 0 0 0-.04.233zM31.928 33.404h-2.592l-1.46-3.102a28.049 28.049 0 0 1-.21-.408 5.521 5.521 0 0 0-.356-.64v4.15h-2.368v-8.302h2.368v3.773a3.19 3.19 0 0 0 .382-.598c.113-.223.18-.354.197-.393l1.408-2.782h2.5l-1.5 2.782a4.64 4.64 0 0 0-.171.306c-.088.165-.185.32-.29.466a3.129 3.129 0 0 1-.316.379c.158.165.285.33.382.495.105.155.224.364.355.626l1.671 3.248zM24.722 33.128a4.098 4.098 0 0 1-1.132.335c-.43.068-.828.102-1.197.102-1.193 0-2.127-.345-2.802-1.034-.676-.69-1.013-1.748-1.013-3.176 0-1.456.355-2.544 1.065-3.263.71-.728 1.71-1.092 3-1.092.614 0 1.255.092 1.921.277 0 .194-.017.485-.052.874-.036.378-.07.645-.106.8h-.829c-.605 0-1.083.015-1.434.044-.342.02-.548.064-.618.132-.132.136-.233.412-.303.83-.07.408-.105.8-.105 1.18 0 .66.075 1.17.224 1.53.149.349.337.582.565.698.22.117.584.175 1.092.175.404 0 .93-.039 1.58-.116l.144 1.704zM15.799 25.102h2.368v8.302h-2.369v-8.302zM12.184 25.058c.71 0 1.311.073 1.803.219.49.145.881.427 1.17.845.299.407.448.995.448 1.762 0 .34-.048.69-.145 1.049-.088.35-.202.655-.342.917-.132.263-.25.432-.355.51-.123.097-.395.175-.816.233-.42.049-.916.073-1.487.073-.201 0-.513-.01-.934-.03v2.768H9.158v-8.302c.92-.03 1.93-.044 3.026-.044zm.987 3.744c.088-.127.131-.38.131-.758 0-.495-.096-.845-.29-1.049-.183-.203-.508-.305-.973-.305-.158 0-.329.014-.513.043v2.214c.088.01.259.015.513.015.676 0 1.053-.053 1.132-.16z" fill="#222"/></svg>